<?xml version="1.0" encoding="UTF-8" standalone="no"?>
<!DOCTYPE svg PUBLIC "-//W3C//DTD SVG 1.1//EN"
 "http://www.w3.org/Graphics/SVG/1.1/DTD/svg11.dtd">
<!-- Generated by graphviz version 14.1.4 (20260321.0153)
 -->
<!-- Title: G Pages: 1 -->
<svg width="596pt" height="98pt"
 viewBox="0.00 0.00 596.00 98.00" xmlns="http://www.w3.org/2000/svg" xmlns:xlink="http://www.w3.org/1999/xlink">
<g id="graph0" class="graph" transform="scale(1 1) rotate(0) translate(4 94)">
<title>G</title>
<polygon fill="white" stroke="none" points="-4,4 -4,-94 592,-94 592,4 -4,4"/>
<!-- data.aws_key_pair.key -->
<g id="node1" class="node">
<title>data.aws_key_pair.key</title>
<polygon fill="none" stroke="black" points="395.75,-90 242.5,-90 242.5,-54 395.75,-54 395.75,-90"/>
<text xml:space="preserve" text-anchor="middle" x="319.12" y="-67.33" font-family="Sans" font-size="14.00">data.aws_key_pair.key</text>
</g>
<!-- aws_instance.public_instance -->
<g id="node2" class="node">
<title>aws_instance.public_instance</title>
<polygon fill="none" stroke="black" points="195.25,-90 0,-90 0,-54 195.25,-54 195.25,-90"/>
<text xml:space="preserve" text-anchor="middle" x="97.62" y="-67.33" font-family="Sans" font-size="14.00">aws_instance.public_instance</text>
</g>
<!-- aws_instance.public_instance&#45;&gt;data.aws_key_pair.key -->
<g id="edge1" class="edge">
<title>aws_instance.public_instance&#45;&gt;data.aws_key_pair.key</title>
<path fill="none" stroke="black" d="M195.54,-72C207.25,-72 219.17,-72 230.73,-72"/>
<polygon fill="black" stroke="black" points="230.65,-75.5 240.65,-72 230.65,-68.5 230.65,-75.5"/>
</g>
<!-- aws_subnet.public_subnet -->
<g id="node4" class="node">
<title>aws_subnet.public_subnet</title>
<polygon fill="none" stroke="black" points="407,-36 231.25,-36 231.25,0 407,0 407,-36"/>
<text xml:space="preserve" text-anchor="middle" x="319.12" y="-13.32" font-family="Sans" font-size="14.00">aws_subnet.public_subnet</text>
</g>
<!-- aws_instance.public_instance&#45;&gt;aws_subnet.public_subnet -->
<g id="edge2" class="edge">
<title>aws_instance.public_instance&#45;&gt;aws_subnet.public_subnet</title>
<path fill="none" stroke="black" d="M173.55,-53.57C192.43,-48.92 212.84,-43.9 232.21,-39.14"/>
<polygon fill="black" stroke="black" points="232.82,-42.59 241.7,-36.8 231.15,-35.79 232.82,-42.59"/>
</g>
<!-- aws_subnet.private_subnet -->
<g id="node3" class="node">
<title>aws_subnet.private_subnet</title>
<polygon fill="none" stroke="black" points="188.88,-36 6.38,-36 6.38,0 188.88,0 188.88,-36"/>
<text xml:space="preserve" text-anchor="middle" x="97.62" y="-13.32" font-family="Sans" font-size="14.00">aws_subnet.private_subnet</text>
</g>
<!-- aws_subnet.private_subnet&#45;&gt;aws_subnet.public_subnet -->
<g id="edge3" class="edge">
<title>aws_subnet.private_subnet&#45;&gt;aws_subnet.public_subnet</title>
<path fill="none" stroke="black" d="M189.17,-18C199.21,-18 209.47,-18 219.6,-18"/>
<polygon fill="black" stroke="black" points="219.45,-21.5 229.45,-18 219.45,-14.5 219.45,-21.5"/>
</g>
<!-- aws_vpc.vpc_virginia -->
<g id="node5" class="node">
<title>aws_vpc.vpc_virginia</title>
<polygon fill="none" stroke="black" points="588,-36 443,-36 443,0 588,0 588,-36"/>
<text xml:space="preserve" text-anchor="middle" x="515.5" y="-13.32" font-family="Sans" font-size="14.00">aws_vpc.vpc_virginia</text>
</g>
<!-- aws_subnet.public_subnet&#45;&gt;aws_vpc.vpc_virginia -->
<g id="edge4" class="edge">
<title>aws_subnet.public_subnet&#45;&gt;aws_vpc.vpc_virginia</title>
<path fill="none" stroke="black" d="M407.36,-18C415.3,-18 423.32,-18 431.22,-18"/>
<polygon fill="black" stroke="black" points="431.16,-21.5 441.16,-18 431.16,-14.5 431.16,-21.5"/>
</g>
</g>
</svg>
